<svg xmlns="http://www.w3.org/2000/svg" width="600" height="800" viewBox="0 0 600 800">
  <defs>
    <linearGradient id="bg" x1="0" y1="0" x2="0" y2="1">
      <stop offset="0%" stop-color="#7ec8f2"/>
      <stop offset="100%" stop-color="#d6f0ff"/>
    </linearGradient>
  </defs>
  <rect width="600" height="800" fill="url(#bg)"/>
  <circle cx="490" cy="140" r="58" fill="#ffd54f"/>
  <path d="M 60 640 A 240 240 0 0 1 540 640" stroke="#e53935" stroke-width="24" fill="none" stroke-linecap="round"/>
  <path d="M 90 640 A 210 210 0 0 1 510 640" stroke="#fb8c00" stroke-width="24" fill="none" stroke-linecap="round"/>
  <path d="M 120 640 A 180 180 0 0 1 480 640" stroke="#fdd835" stroke-width="24" fill="none" stroke-linecap="round"/>
  <path d="M 150 640 A 150 150 0 0 1 450 640" stroke="#43a047" stroke-width="24" fill="none" stroke-linecap="round"/>
  <path d="M 180 640 A 120 120 0 0 1 420 640" stroke="#1e88e5" stroke-width="24" fill="none" stroke-linecap="round"/>
  <path d="M 210 640 A 90 90 0 0 1 390 640" stroke="#5e35b1" stroke-width="24" fill="none" stroke-linecap="round"/>
  <ellipse cx="120" cy="170" rx="60" ry="28" fill="#ffffff" opacity="0.95"/>
  <ellipse cx="175" cy="152" rx="45" ry="24" fill="#ffffff" opacity="0.95"/>
  <ellipse cx="75" cy="158" rx="38" ry="20" fill="#ffffff" opacity="0.95"/>
  <ellipse cx="440" cy="250" rx="52" ry="24" fill="#ffffff" opacity="0.9"/>
  <rect x="0" y="660" width="600" height="140" fill="#66bb6a"/>
  <rect x="60" y="300" width="60" height="80" rx="12" fill="#8d6e63"/>
  <rect x="480" y="290" width="55" height="90" rx="12" fill="#a1887f"/>
  <rect x="180" y="712" width="240" height="64" rx="14" fill="rgba(0,0,0,0.35)"/>
  <text x="300" y="754" text-anchor="middle" font-family="Arial, sans-serif" font-size="30" font-weight="bold" fill="#ffffff">Rubí: Colores del Cielo</text>
  <rect x="170" y="66" width="260" height="46" rx="23" fill="#8e24aa"/>
  <text x="300" y="97" text-anchor="middle" font-family="Arial, sans-serif" font-size="22" font-weight="bold" fill="#ffffff">PRÓXIMAMENTE</text>
  <text x="300" y="620" text-anchor="middle" font-family="Arial, sans-serif" font-size="20" fill="#455a64">JUEGO DE PUZLES Y COLORES</text>
</svg>
